<svg xmlns="http://www.w3.org/2000/svg" viewBox="-7897 75 26.4 23.9">
  <defs>
    <style>
      .cls-1 {
        fill: #35150f;
      }
    </style>
  </defs>
  <g id="Group_36" data-name="Group 36" transform="translate(-7897 75)">
    <path id="Path_181" data-name="Path 181" class="cls-1" d="M19.6,18.7a2.6,2.6,0,1,0,2.6,2.6A2.647,2.647,0,0,0,19.6,18.7Zm0,4.3a1.6,1.6,0,1,1,1.6-1.6A1.58,1.58,0,0,1,19.6,23Z"/>
    <path id="Path_182" data-name="Path 182" class="cls-1" d="M24.3,12.7h0l2.1-9.1a.6.6,0,0,0-.1-.4.758.758,0,0,0-.4-.2H5.2L4.6.4A.458.458,0,0,0,4.1,0H.5A.472.472,0,0,0,0,.5.472.472,0,0,0,.5,1H3.7v.1L6.9,16.2s0,.3.1.4a.52.52,0,0,0,.4.2H22.5a.758.758,0,0,0,.4-.2.52.52,0,0,0,.2-.4c0-.2-.1-.2-.2-.3a.52.52,0,0,0-.4-.2H7.9l-.5-2.6H23.9C24,13.1,24.2,12.9,24.3,12.7ZM7.1,12.1h0L5.4,4H25.2v.1L23.3,12H7.1Z"/>
    <path id="Path_183" data-name="Path 183" class="cls-1" d="M10.5,18.7a2.6,2.6,0,1,0,2.6,2.6A2.647,2.647,0,0,0,10.5,18.7Zm0,4.3a1.6,1.6,0,1,1,1.6-1.6A1.58,1.58,0,0,1,10.5,23Z"/>
  </g>
</svg>
