<svg xmlns="http://www.w3.org/2000/svg" viewBox="-7837 76 23 22.041">
  <defs>
    <style>
      .cls-1 {
        fill: #35150f;
      }
    </style>
  </defs>
  <path id="Path_179" data-name="Path 179" class="cls-1" d="M20.6,0H2.4A2.433,2.433,0,0,0,0,2.4V21.5a.55.55,0,0,0,.3.5.661.661,0,0,0,.6-.1L6.8,16H20.6A2.433,2.433,0,0,0,23,13.6V2.4A2.433,2.433,0,0,0,20.6,0ZM22,13.5a1.367,1.367,0,0,1-1.4,1.4H6.6a.758.758,0,0,0-.4.2L1,20.2V2.4A1.506,1.506,0,0,1,2.4,1H20.6A1.43,1.43,0,0,1,22,2.4Z" transform="translate(-7837 76)"/>
</svg>
