<svg xmlns="http://www.w3.org/2000/svg" viewBox="-7415 55 200 63.733">
  <defs>
    <style>
      .cls-1 {
        fill: #35150f;
      }
    </style>
  </defs>
  <g id="Group_1" data-name="Group 1" transform="translate(-8163 -418)">
    <path id="Path_1" data-name="Path 1" class="cls-1" d="M-3.19,0-6.024,2.832-3.19,5.667-.357,2.832Z" transform="translate(852.06 530.357)"/>
    <path id="Path_2" data-name="Path 2" class="cls-1" d="M0,0V21.622H3.1V11.546H11.53V8.791H3.1V2.755H11.53V0Z" transform="translate(748 492.879)"/>
    <path id="Path_3" data-name="Path 3" class="cls-1" d="M-13.027,0A11.627,11.627,0,0,1-4.682,3.173a10.527,10.527,0,0,1,3.334,7.955,10.358,10.358,0,0,1-3.365,7.917A11.957,11.957,0,0,1-13.2,22.178a11.275,11.275,0,0,1-8.144-3.134A10.447,10.447,0,0,1-24.6,11.19a10.683,10.683,0,0,1,3.279-8.017A11.439,11.439,0,0,1-13.027,0m.124,2.94A8.393,8.393,0,0,0-19,5.262a7.91,7.91,0,0,0-2.389,5.928A7.763,7.763,0,0,0-19,17.009a8.277,8.277,0,0,0,6,2.322,8.289,8.289,0,0,0,6.038-2.368,7.915,7.915,0,0,0,2.42-5.9,7.731,7.731,0,0,0-2.42-5.78A8.216,8.216,0,0,0-12.9,2.94" transform="translate(792.818 492.569)"/>
    <path id="Path_4" data-name="Path 4" class="cls-1" d="M-21.923-19.013v3.405a16.16,16.16,0,0,1-7.862,1.857,12.109,12.109,0,0,1-6.144-1.455,10.707,10.707,0,0,1-3.993-4.008,10.88,10.88,0,0,1-1.47-5.525,10.551,10.551,0,0,1,3.366-7.94,11.552,11.552,0,0,1,8.3-3.22,19.484,19.484,0,0,1,7.568,1.78v3.328a14.9,14.9,0,0,0-7.414-2.167,8.57,8.57,0,0,0-6.167,2.345,7.787,7.787,0,0,0-2.453,5.874,7.71,7.71,0,0,0,2.414,5.85A8.61,8.61,0,0,0-29.6-16.6a14.007,14.007,0,0,0,7.676-2.414" transform="translate(842.174 528.499)"/>
    <path id="Path_6" data-name="Path 6" class="cls-1" d="M-10.457,0h2.175L1.413,21.746H-1.755l-2.881-6.408h-9.224l-2.7,6.408h-3.181Zm4.548,12.583L-9.4,4.752l-3.235,7.831Z" transform="translate(848.547 492.755)"/>
    <path id="Path_7" data-name="Path 7" class="cls-1" d="M-21.923-19.013v3.405a16.159,16.159,0,0,1-7.862,1.857,12.109,12.109,0,0,1-6.144-1.455,10.707,10.707,0,0,1-3.993-4.008,10.885,10.885,0,0,1-1.47-5.525,10.551,10.551,0,0,1,3.366-7.94,11.553,11.553,0,0,1,8.3-3.22,19.488,19.488,0,0,1,7.568,1.78v3.328a14.9,14.9,0,0,0-7.414-2.167,8.571,8.571,0,0,0-6.167,2.345,7.787,7.787,0,0,0-2.453,5.874,7.71,7.71,0,0,0,2.414,5.85A8.608,8.608,0,0,0-29.6-16.6a14.007,14.007,0,0,0,7.676-2.414" transform="translate(897.957 528.499)"/>
    <path id="Path_8" data-name="Path 8" class="cls-1" d="M-21.923-19.013v3.405a16.16,16.16,0,0,1-7.862,1.857,12.108,12.108,0,0,1-6.144-1.455,10.707,10.707,0,0,1-3.993-4.008,10.885,10.885,0,0,1-1.47-5.525,10.551,10.551,0,0,1,3.366-7.94,11.552,11.552,0,0,1,8.3-3.22,19.484,19.484,0,0,1,7.568,1.78v3.328a14.9,14.9,0,0,0-7.414-2.167,8.571,8.571,0,0,0-6.167,2.345,7.787,7.787,0,0,0-2.453,5.874,7.71,7.71,0,0,0,2.414,5.85A8.61,8.61,0,0,0-29.6-16.6a14.007,14.007,0,0,0,7.676-2.414" transform="translate(926.739 528.499)"/>
    <path id="Path_10" data-name="Path 10" class="cls-1" d="M355.024-93.232h3.1V-71.61h-3.1Z" transform="translate(559.969 586.111)"/>
    <path id="Path_11" data-name="Path 11" class="cls-1" d="M-10.456,0l-9.287,21.745h3.181l2.7-6.407h9.225l2.881,6.407H1.414L-8.281,0ZM-9.4,4.752l3.488,7.831h-6.723Z" transform="translate(946.586 492.755)"/>
    <path id="Path_12" data-name="Path 12" class="cls-1" d="M-6.357,0-8.694,2.905-11.045,0H-12V7.074h1.013V1.57L-8.79,4.3H-8.6L-6.428,1.57v5.5h1.017V0Z" transform="translate(789.914 529.658)"/>
    <path id="Path_13" data-name="Path 13" class="cls-1" d="M-3.421,0-6.459,7.114h1.04l.884-2.1h3.018l.943,2.1H.463L-2.709,0Zm.347,1.555,1.141,2.562h-2.2Z" transform="translate(794.818 529.618)"/>
    <path id="Path_14" data-name="Path 14" class="cls-1" d="M0-7.965v-7.074H1.772a2.558,2.558,0,0,1,1.7.532,1.783,1.783,0,0,1,.63,1.438A1.842,1.842,0,0,1,3.8-12a1.844,1.844,0,0,1-.886.674,3.127,3.127,0,0,1,.663.608,12.244,12.244,0,0,1,.912,1.342q.37.6.592.906l.375.507H4.248L3.94-8.431c-.01-.017-.03-.046-.061-.086l-.2-.278-.314-.517L3.03-9.865a5.5,5.5,0,0,0-.575-.693,2.178,2.178,0,0,0-.471-.372,1.6,1.6,0,0,0-.707-.114H1.013v3.079Zm1.317-6.213h-.3v2.233H1.4a2.854,2.854,0,0,0,1.056-.132.994.994,0,0,0,.445-.4,1.154,1.154,0,0,0,.159-.605,1.082,1.082,0,0,0-.177-.6.947.947,0,0,0-.5-.382,3.6,3.6,0,0,0-1.066-.111" transform="translate(799.197 544.697)"/>
    <path id="Path_16" data-name="Path 16" class="cls-1" d="M-4.493,0-7.47,3.236V0H-8.483V7.074H-7.47V3.58l3.615,3.494h1.382L-6.3,3.358-3.228,0Z" transform="translate(817.035 529.658)"/>
    <path id="Path_17" data-name="Path 17" class="cls-1" d="M0,0V7.064H4.107v-.9H1.013v-2.2h2.9V3.059h-2.9V.9h3V0Z" transform="translate(818.453 529.658)"/>
    <path id="Path_18" data-name="Path 18" class="cls-1" d="M0,0V.9H2.425V7.084H3.444V.9H5.909V0Z" transform="translate(826.147 529.648)"/>
    <path id="Path_19" data-name="Path 19" class="cls-1" d="M-2.7-7.965h-2.4v-7.074h1.853a3.223,3.223,0,0,1,1.367.236,1.747,1.747,0,0,1,.75.648,1.765,1.765,0,0,1,.258.954,1.541,1.541,0,0,1-1.078,1.494,2.188,2.188,0,0,1,1.233.638A1.661,1.661,0,0,1-.251-9.895a1.729,1.729,0,0,1-.278.968,2.024,2.024,0,0,1-.818.693A3.014,3.014,0,0,1-2.7-7.965m-.512-6.173h-.871v2.127h.674a1.709,1.709,0,0,0,1.152-.309,1.029,1.029,0,0,0,.341-.8q0-1.017-1.3-1.018m.076,3.028h-.947v2.243h1A3.25,3.25,0,0,0-1.955-9a1.067,1.067,0,0,0,.476-.4,1.047,1.047,0,0,0,.18-.587,1,1,0,0,0-.19-.593,1.122,1.122,0,0,0-.54-.4,3.369,3.369,0,0,0-1.1-.132" transform="translate(871.967 544.697)"/>
    <path id="Path_21" data-name="Path 21" class="cls-1" d="M-3.421,0-6.46,7.114h1.041l.884-2.1h3.018l.943,2.1H.462L-2.71,0Zm.347,1.555,1.142,2.562h-2.2Z" transform="translate(881.712 529.618)"/>
    <path id="Path_22" data-name="Path 22" class="cls-1" d="M-4.493,0-7.471,3.236V0H-8.484V7.074h1.013V3.58l3.615,3.494h1.383L-6.3,3.358-3.228,0Z" transform="translate(894.554 529.658)"/>
    <path id="Path_23" data-name="Path 23" class="cls-1" d="M0,0V7.064H4.107v-.9H1.013v-2.2h2.9V3.059h-2.9V.9h3V0Z" transform="translate(895.971 529.658)"/>
    <path id="Path_24" data-name="Path 24" class="cls-1" d="M0-7.965v-7.074H1.772a2.556,2.556,0,0,1,1.7.532,1.782,1.782,0,0,1,.63,1.438A1.842,1.842,0,0,1,3.8-12a1.844,1.844,0,0,1-.886.674,3.129,3.129,0,0,1,.664.608,12.189,12.189,0,0,1,.911,1.342q.37.6.592.906l.375.507H4.248L3.94-8.431a1.045,1.045,0,0,0-.061-.086l-.2-.278-.313-.517L3.03-9.865a5.421,5.421,0,0,0-.575-.693,2.178,2.178,0,0,0-.471-.372,1.6,1.6,0,0,0-.707-.114H1.013v3.079Zm1.317-6.213h-.3v2.233H1.4a2.849,2.849,0,0,0,1.056-.132.99.99,0,0,0,.446-.4,1.154,1.154,0,0,0,.159-.605,1.082,1.082,0,0,0-.177-.6.947.947,0,0,0-.5-.382,3.6,3.6,0,0,0-1.066-.111" transform="translate(904.298 544.697)"/>
    <path id="Path_26" data-name="Path 26" class="cls-1" d="M-5.669,0-7.588,2.439-9.481,0H-10.7L-8.09,3.332V7.074h1.038V3.332L-4.439,0Z" transform="translate(922.528 529.658)"/>
    <path id="Path_27" data-name="Path 27" class="cls-1" d="M0,0V4.536H2.636V3.956H.65V2.546H2.51V1.964H.65V.579H2.575V0Z" transform="translate(827.748 473.065)"/>
    <path id="Path_28" data-name="Path 28" class="cls-1" d="M-1.523-3.037l-.494-.3A2.242,2.242,0,0,1-2.678-3.9a1.058,1.058,0,0,1-.2-.633A1.118,1.118,0,0,1-2.5-5.4a1.391,1.391,0,0,1,.968-.335,1.832,1.832,0,0,1,1.043.319v.738A1.5,1.5,0,0,0-1.549-5.15.874.874,0,0,0-2.072-5a.447.447,0,0,0-.205.377.58.58,0,0,0,.151.382,1.887,1.887,0,0,0,.485.374l.5.294A1.455,1.455,0,0,1-.313-2.311a1.158,1.158,0,0,1-.366.888,1.337,1.337,0,0,1-.951.341A2,2,0,0,1-2.856-1.5v-.826a1.531,1.531,0,0,0,1.219.667.766.766,0,0,0,.509-.17.532.532,0,0,0,.2-.426q0-.415-.6-.787" transform="translate(835.723 478.741)"/>
    <path id="Path_30" data-name="Path 30" class="cls-1" d="M0,0V.579H1.557v3.97h.654V.579H3.794V0Z" transform="translate(837.736 473.058)"/>
    <path id="Path_31" data-name="Path 31" class="cls-1" d="M-.443,0A.39.39,0,0,1-.16.114.376.376,0,0,1-.042.393.365.365,0,0,1-.158.667.4.4,0,0,1-.443.777.388.388,0,0,1-.723.667.366.366,0,0,1-.836.393.38.38,0,0,1-.723.114.379.379,0,0,1-.443,0" transform="translate(843.977 476.882)"/>
    <path id="Path_33" data-name="Path 33" class="cls-1" d="M218.538-130.813h.65v-4.542h-.65Z" transform="translate(632.256 608.42)"/>
    <path id="Path_34" data-name="Path 34" class="cls-1" d="M-1.131-5.239l-.4-.471A3.723,3.723,0,0,0-.65-6.483a2.436,2.436,0,0,0,.5-.932,1.347,1.347,0,0,1-.725.192,1.2,1.2,0,0,1-.892-.387,1.292,1.292,0,0,1-.373-.93,1.3,1.3,0,0,1,.4-.959A1.323,1.323,0,0,1-.77-9.892a1.339,1.339,0,0,1,1.053.465,1.737,1.737,0,0,1,.41,1.193A3.2,3.2,0,0,1,.179-6.564a3.863,3.863,0,0,1-1.31,1.325M-.019-8.061A3.116,3.116,0,0,0,.02-8.4.939.939,0,0,0-.2-9.043a.714.714,0,0,0-.564-.251.7.7,0,0,0-.522.213.737.737,0,0,0-.206.535.682.682,0,0,0,.224.51.749.749,0,0,0,.537.214,1.24,1.24,0,0,0,.712-.24" transform="translate(857.151 482.898)"/>
    <path id="Path_35" data-name="Path 35" class="cls-1" d="M-1.131-5.239l-.4-.471a3.723,3.723,0,0,0,.881-.772,2.436,2.436,0,0,0,.5-.932,1.345,1.345,0,0,1-.725.192,1.2,1.2,0,0,1-.892-.387,1.292,1.292,0,0,1-.372-.93,1.3,1.3,0,0,1,.4-.959,1.323,1.323,0,0,1,.969-.394,1.341,1.341,0,0,1,1.054.465A1.739,1.739,0,0,1,.692-8.233,3.2,3.2,0,0,1,.179-6.564a3.866,3.866,0,0,1-1.31,1.325M-.019-8.061A3.039,3.039,0,0,0,.02-8.4.941.941,0,0,0-.2-9.043a.716.716,0,0,0-.564-.251.7.7,0,0,0-.522.213.737.737,0,0,0-.206.535.682.682,0,0,0,.224.51.749.749,0,0,0,.537.214,1.239,1.239,0,0,0,.712-.24" transform="translate(862.479 482.898)"/>
    <path id="Path_36" data-name="Path 36" class="cls-1" d="M-.872-2.211h.039a1.031,1.031,0,0,0,.649-.175A.612.612,0,0,0,.038-2.9a.621.621,0,0,0-.216-.491.834.834,0,0,0-.567-.189,1.754,1.754,0,0,0-.787.221v-.621a1.9,1.9,0,0,1,.865-.2,1.421,1.421,0,0,1,.99.328,1.148,1.148,0,0,1,.363.9,1.12,1.12,0,0,1-.14.58,1.141,1.141,0,0,1-.446.4.928.928,0,0,1,.39.255,1.1,1.1,0,0,1,.192.366,1.5,1.5,0,0,1,.068.456A1.318,1.318,0,0,1,.354.1a1.372,1.372,0,0,1-1,.389,2.138,2.138,0,0,1-1-.251V-.475a1.882,1.882,0,0,0,1,.321A.723.723,0,0,0-.119-.348a.688.688,0,0,0,.2-.517.717.717,0,0,0-.166-.471A.614.614,0,0,0-.3-1.5a2.179,2.179,0,0,0-.512-.1l-.059-.007Z" transform="translate(867.501 477.175)"/>
    <path id="Path_38" data-name="Path 38" class="cls-1" d="M266.311-130.564h31.551v-.365H266.311Z" transform="translate(606.954 606.076)"/>
    <path id="Path_39" data-name="Path 39" class="cls-1" d="M91.809-130.564H123.36v-.365H91.809Z" transform="translate(699.375 606.076)"/>
  </g>
</svg>
