<svg xmlns="http://www.w3.org/2000/svg" viewBox="-7777 74 24.706 26">
  <defs>
    <style>
      .cls-1 {
        fill: #35150f;
      }
    </style>
  </defs>
  <path id="Path_348" data-name="Path 348" class="cls-1" d="M21.9,16.5a12.869,12.869,0,0,0-7-4.1,6.321,6.321,0,0,0,3.9-5.9A6.487,6.487,0,0,0,12.3,0,6.4,6.4,0,0,0,5.9,6.5a6.321,6.321,0,0,0,3.9,5.9,12.869,12.869,0,0,0-7,4.1A11.562,11.562,0,0,0,0,23.9v1.5c0,.4.2.6.5.6H24.2a.472.472,0,0,0,.5-.5V24A11.108,11.108,0,0,0,21.9,16.5Zm-9.5-3.4c6.1,0,11.3,5,11.3,10.8v1H1.1v-1C1.1,18.1,6.2,13.1,12.4,13.1ZM7,6.4a5.4,5.4,0,1,1,10.8,0,5.463,5.463,0,0,1-5.4,5.5A5.463,5.463,0,0,1,7,6.4Z" transform="translate(-7777 74)"/>
</svg>
