<svg xmlns="http://www.w3.org/2000/svg" viewBox="-7715 75 23.06 23.1">
  <defs>
    <style>
      .cls-1 {
        fill: #35150f;
      }
    </style>
  </defs>
  <g id="Group_35" data-name="Group 35" transform="translate(-7715 75)">
    <path id="Path_178" data-name="Path 178" class="cls-1" d="M22.8,22.1l-6.4-6.4A9.338,9.338,0,0,0,16,2.8a9.179,9.179,0,0,0-13.2,0A9.069,9.069,0,0,0,0,9.4a9.465,9.465,0,0,0,2.8,6.7,9.3,9.3,0,0,0,6.7,2.8,9.682,9.682,0,0,0,6.3-2.4l6.4,6.4a.52.52,0,0,0,.4.2.4.4,0,0,0,.4-.2A.653.653,0,0,0,22.8,22.1ZM9.4,17.8a8.336,8.336,0,0,1-5.9-2.5A8,8,0,0,1,1,9.4,8.165,8.165,0,0,1,3.5,3.5,8.336,8.336,0,0,1,9.4,1a8.336,8.336,0,0,1,5.9,2.5A8.35,8.35,0,0,1,9.4,17.8Z"/>
  </g>
</svg>
